<?xml version="1.0" encoding="UTF-8" standalone="no"?>
<!-- Created with Inkscape (http://www.inkscape.org/) -->

<svg
   inkscape:version="1.1 (c68e22c387, 2021-05-23)"
   version="1.1"
   id="svg2"
   viewBox="0 0 4535.4332 2551.1812"
   height="720mm"
   width="1280mm"
   sodipodi:docname="bg_water.svg"
   inkscape:export-filename="C:\Users\David\Desktop\Files\number-nibbler\assets\image\bg_water.png"
   inkscape:export-xdpi="37.49287"
   inkscape:export-ydpi="37.49287"
   xmlns:inkscape="http://www.inkscape.org/namespaces/inkscape"
   xmlns:sodipodi="http://sodipodi.sourceforge.net/DTD/sodipodi-0.dtd"
   xmlns="http://www.w3.org/2000/svg"
   xmlns:svg="http://www.w3.org/2000/svg"
   xmlns:rdf="http://www.w3.org/1999/02/22-rdf-syntax-ns#"
   xmlns:cc="http://creativecommons.org/ns#"
   xmlns:dc="http://purl.org/dc/elements/1.1/">
  <defs
     id="defs4">
    <marker
       inkscape:stockid="Arrow1Lstart"
       orient="auto"
       refY="0"
       refX="0"
       id="marker4467"
       style="overflow:visible"
       inkscape:isstock="true">
      <path
         id="path4469"
         d="M 0,0 5,-5 -12.5,0 5,5 Z"
         style="fill:#9ef1ff;fill-opacity:1;fill-rule:evenodd;stroke:#9ef1ff;stroke-width:1pt;stroke-opacity:1"
         transform="matrix(0.8,0,0,0.8,10,0)" />
    </marker>
    <marker
       inkscape:stockid="Arrow1Lstart"
       orient="auto"
       refY="0"
       refX="0"
       id="Arrow1Lstart"
       style="overflow:visible"
       inkscape:isstock="true">
      <path
         id="path4197"
         d="M 0,0 5,-5 -12.5,0 5,5 Z"
         style="fill:#9ef1ff;fill-opacity:1;fill-rule:evenodd;stroke:#9ef1ff;stroke-width:1pt;stroke-opacity:1"
         transform="matrix(0.8,0,0,0.8,10,0)" />
    </marker>
    <linearGradient
       id="linearGradient4163"
       inkscape:swatch="gradient">
      <stop
         style="stop-color:#33ffff;stop-opacity:1;"
         offset="0"
         id="stop4165" />
      <stop
         style="stop-color:#33ffff;stop-opacity:0;"
         offset="1"
         id="stop4167" />
    </linearGradient>
  </defs>
  <sodipodi:namedview
     inkscape:window-maximized="1"
     inkscape:window-y="415"
     inkscape:window-x="-12"
     inkscape:window-height="1906"
     inkscape:window-width="3584"
     showgrid="false"
     inkscape:current-layer="layer1"
     inkscape:document-units="px"
     inkscape:cy="1781.9091"
     inkscape:cx="2224.3559"
     inkscape:zoom="0.24748737"
     inkscape:pageshadow="2"
     inkscape:pageopacity="0.0"
     borderopacity="1.0"
     bordercolor="#666666"
     pagecolor="#ffffff"
     id="base"
     fit-margin-top="0"
     fit-margin-left="0"
     fit-margin-right="0"
     fit-margin-bottom="0"
     inkscape:pagecheckerboard="0"
     width="1280mm" />
  <metadata
     id="metadata7">
    <rdf:RDF>
      <cc:Work
         rdf:about="">
        <dc:format>image/svg+xml</dc:format>
        <dc:type
           rdf:resource="http://purl.org/dc/dcmitype/StillImage" />
      </cc:Work>
    </rdf:RDF>
  </metadata>
  <g
     inkscape:label="Layer 1"
     inkscape:groupmode="layer"
     id="layer1"
     transform="translate(752.08716,325.06781)">
    <rect
       style="fill:#4cdbff;fill-opacity:1;stroke:none;stroke-width:16.9086;stroke-miterlimit:4;stroke-dasharray:none;stroke-opacity:1"
       id="rect3336"
       width="4673.4287"
       height="2582.9426"
       x="-747.93219"
       y="-328.48898"
       inkscape:export-xdpi="37.49287"
       inkscape:export-ydpi="37.49287" />
    <g
       id="g5036"
       style="fill:#95eaff;fill-opacity:1;stroke:none"
       transform="matrix(1.5823545,0,0,1.4699673,441.05529,148.81075)">
      <path
         inkscape:connector-curvature="0"
         d="m -629.75005,-215.99873 c 5.9707,-0.87616 5.47374,-0.64446 12.5262,-2.66206 3.58463,-1.02551 7.06783,-2.3991 10.67846,-3.32891 17.50984,-4.50911 35.70177,-6.66991 53.51368,-9.5785 46.7967,-5.83932 94.14772,-10.62172 141.38402,-9.65485 9.14847,0.18726 18.27774,0.918 27.41661,1.37699 40.38608,1.67802 76.91992,18.50055 114.562,31.08241 31.26063,9.4653 64.07657,10.5673 96.45557,12.07194 0,0 -43.58506,31.40235 -43.58506,31.40235 v 0 c -33.37507,-1.11098 -67.31504,-1.54951 -99.38577,-12.01408 -36.28071,-13.26548 -71.9599,-29.26638 -111.13786,-31.59251 -8.86119,-0.52304 -17.70916,-1.37113 -26.58355,-1.56913 -47.75366,-1.06543 -95.59286,4.61807 -142.7081,11.72591 -27.03166,5.00726 -54.44474,9.70471 -79.99458,20.22271 0,0 46.85838,-37.48227 46.85838,-37.48227 z"
         id="path5026"
         style="fill:#95eaff;fill-opacity:1;stroke:none;stroke-width:4.5;stroke-linejoin:miter;stroke-miterlimit:4;stroke-dasharray:none;stroke-dashoffset:0;stroke-opacity:1" />
      <path
         style="fill:#95eaff;fill-opacity:1;stroke:none;stroke-width:4.5;stroke-linejoin:miter;stroke-miterlimit:4;stroke-dasharray:none;stroke-dashoffset:0;stroke-opacity:1"
         id="path5032"
         d="m 1002.6567,-240.24239 c 5.9707,-0.87616 5.4737,-0.64446 12.5262,-2.66206 3.5846,-1.02551 7.0678,-2.3991 10.6784,-3.32891 17.5098,-4.50911 35.7018,-6.66991 53.5137,-9.5785 46.7967,-5.83932 94.1477,-10.62172 141.384,-9.65485 9.1485,0.18726 18.2777,0.918 27.4166,1.37699 40.3861,1.67802 76.9199,18.50055 114.562,31.08241 31.2606,9.4653 64.0766,10.5673 96.4556,12.07194 0,0 -43.5851,31.40235 -43.5851,31.40235 v 0 c -33.375,-1.11098 -67.315,-1.54951 -99.3857,-12.01408 -36.2808,-13.26548 -71.9599,-29.26638 -111.1379,-31.59251 -8.8612,-0.52304 -17.7092,-1.37113 -26.5836,-1.56913 -47.7536,-1.06543 -95.5928,4.61807 -142.708,11.72591 -27.0317,5.00726 -54.44478,9.70471 -79.99462,20.22271 0,0 46.85842,-37.48227 46.85842,-37.48227 z"
         inkscape:connector-curvature="0" />
      <path
         inkscape:connector-curvature="0"
         d="m 195.72489,-158.25437 c 5.9707,-0.87616 5.47374,-0.64446 12.5262,-2.66206 3.58463,-1.02551 7.06783,-2.3991 10.67846,-3.32891 17.50984,-4.50911 35.70177,-6.66991 53.51368,-9.5785 46.7967,-5.83932 94.14772,-10.62172 141.38402,-9.65485 9.14847,0.18726 18.27774,0.918 27.41661,1.37699 40.38608,1.67802 76.91992,18.50055 114.562,31.08241 31.26063,9.4653 64.07657,10.5673 96.45557,12.07194 0,0 -43.58506,31.40235 -43.58506,31.40235 v 0 c -33.37507,-1.11098 -67.31504,-1.54951 -99.38577,-12.01408 -36.28071,-13.26548 -71.9599,-29.26638 -111.13786,-31.59251 -8.86119,-0.52304 -17.70916,-1.37113 -26.58355,-1.56913 -47.75366,-1.06543 -95.59286,4.61807 -142.7081,11.72591 -27.03166,5.00726 -54.44474,9.70471 -79.99458,20.22271 0,0 46.85838,-37.48227 46.85838,-37.48227 z"
         id="path5034"
         style="fill:#95eaff;fill-opacity:1;stroke:none;stroke-width:4.5;stroke-linejoin:miter;stroke-miterlimit:4;stroke-dasharray:none;stroke-dashoffset:0;stroke-opacity:1" />
    </g>
    <g
       id="g5041"
       transform="matrix(1.5823545,0,0,1.4699673,862.17858,493.30556)"
       style="fill:#95eaff;fill-opacity:1;stroke:none">
      <path
         style="fill:#95eaff;fill-opacity:1;stroke:none;stroke-width:4.5;stroke-linejoin:miter;stroke-miterlimit:4;stroke-dasharray:none;stroke-dashoffset:0;stroke-opacity:1"
         id="path5043"
         d="m -629.75005,-215.99873 c 5.9707,-0.87616 5.47374,-0.64446 12.5262,-2.66206 3.58463,-1.02551 7.06783,-2.3991 10.67846,-3.32891 17.50984,-4.50911 35.70177,-6.66991 53.51368,-9.5785 46.7967,-5.83932 94.14772,-10.62172 141.38402,-9.65485 9.14847,0.18726 18.27774,0.918 27.41661,1.37699 40.38608,1.67802 76.91992,18.50055 114.562,31.08241 31.26063,9.4653 64.07657,10.5673 96.45557,12.07194 0,0 -43.58506,31.40235 -43.58506,31.40235 v 0 c -33.37507,-1.11098 -67.31504,-1.54951 -99.38577,-12.01408 -36.28071,-13.26548 -71.9599,-29.26638 -111.13786,-31.59251 -8.86119,-0.52304 -17.70916,-1.37113 -26.58355,-1.56913 -47.75366,-1.06543 -95.59286,4.61807 -142.7081,11.72591 -27.03166,5.00726 -54.44474,9.70471 -79.99458,20.22271 0,0 46.85838,-37.48227 46.85838,-37.48227 z"
         inkscape:connector-curvature="0" />
      <path
         inkscape:connector-curvature="0"
         d="m 1002.6567,-240.24239 c 5.9707,-0.87616 5.4737,-0.64446 12.5262,-2.66206 3.5846,-1.02551 7.0678,-2.3991 10.6784,-3.32891 17.5098,-4.50911 35.7018,-6.66991 53.5137,-9.5785 46.7967,-5.83932 94.1477,-10.62172 141.384,-9.65485 9.1485,0.18726 18.2777,0.918 27.4166,1.37699 40.3861,1.67802 76.9199,18.50055 114.562,31.08241 31.2606,9.4653 64.0766,10.5673 96.4556,12.07194 0,0 -43.5851,31.40235 -43.5851,31.40235 v 0 c -33.375,-1.11098 -67.315,-1.54951 -99.3857,-12.01408 -36.2808,-13.26548 -71.9599,-29.26638 -111.1379,-31.59251 -8.8612,-0.52304 -17.7092,-1.37113 -26.5836,-1.56913 -47.7536,-1.06543 -95.5928,4.61807 -142.708,11.72591 -27.0317,5.00726 -54.44478,9.70471 -79.99462,20.22271 0,0 46.85842,-37.48227 46.85842,-37.48227 z"
         id="path5045"
         style="fill:#95eaff;fill-opacity:1;stroke:none;stroke-width:4.5;stroke-linejoin:miter;stroke-miterlimit:4;stroke-dasharray:none;stroke-dashoffset:0;stroke-opacity:1" />
      <path
         style="fill:#95eaff;fill-opacity:1;stroke:none;stroke-width:4.5;stroke-linejoin:miter;stroke-miterlimit:4;stroke-dasharray:none;stroke-dashoffset:0;stroke-opacity:1"
         id="path5047"
         d="m 195.72489,-158.25437 c 5.9707,-0.87616 5.47374,-0.64446 12.5262,-2.66206 3.58463,-1.02551 7.06783,-2.3991 10.67846,-3.32891 17.50984,-4.50911 35.70177,-6.66991 53.51368,-9.5785 46.7967,-5.83932 94.14772,-10.62172 141.38402,-9.65485 9.14847,0.18726 18.27774,0.918 27.41661,1.37699 40.38608,1.67802 76.91992,18.50055 114.562,31.08241 31.26063,9.4653 64.07657,10.5673 96.45557,12.07194 0,0 -43.58506,31.40235 -43.58506,31.40235 v 0 c -33.37507,-1.11098 -67.31504,-1.54951 -99.38577,-12.01408 -36.28071,-13.26548 -71.9599,-29.26638 -111.13786,-31.59251 -8.86119,-0.52304 -17.70916,-1.37113 -26.58355,-1.56913 -47.75366,-1.06543 -95.59286,4.61807 -142.7081,11.72591 -27.03166,5.00726 -54.44474,9.70471 -79.99458,20.22271 0,0 46.85838,-37.48227 46.85838,-37.48227 z"
         inkscape:connector-curvature="0" />
    </g>
    <g
       transform="matrix(1.5823545,0,0,1.4699673,453.84265,849.6795)"
       id="g5049"
       style="fill:#95eaff;fill-opacity:1;stroke:none">
      <path
         inkscape:connector-curvature="0"
         d="m -629.75005,-215.99873 c 5.9707,-0.87616 5.47374,-0.64446 12.5262,-2.66206 3.58463,-1.02551 7.06783,-2.3991 10.67846,-3.32891 17.50984,-4.50911 35.70177,-6.66991 53.51368,-9.5785 46.7967,-5.83932 94.14772,-10.62172 141.38402,-9.65485 9.14847,0.18726 18.27774,0.918 27.41661,1.37699 40.38608,1.67802 76.91992,18.50055 114.562,31.08241 31.26063,9.4653 64.07657,10.5673 96.45557,12.07194 0,0 -43.58506,31.40235 -43.58506,31.40235 v 0 c -33.37507,-1.11098 -67.31504,-1.54951 -99.38577,-12.01408 -36.28071,-13.26548 -71.9599,-29.26638 -111.13786,-31.59251 -8.86119,-0.52304 -17.70916,-1.37113 -26.58355,-1.56913 -47.75366,-1.06543 -95.59286,4.61807 -142.7081,11.72591 -27.03166,5.00726 -54.44474,9.70471 -79.99458,20.22271 0,0 46.85838,-37.48227 46.85838,-37.48227 z"
         id="path5051"
         style="fill:#95eaff;fill-opacity:1;stroke:none;stroke-width:4.5;stroke-linejoin:miter;stroke-miterlimit:4;stroke-dasharray:none;stroke-dashoffset:0;stroke-opacity:1" />
      <path
         style="fill:#95eaff;fill-opacity:1;stroke:none;stroke-width:4.5;stroke-linejoin:miter;stroke-miterlimit:4;stroke-dasharray:none;stroke-dashoffset:0;stroke-opacity:1"
         id="path5053"
         d="m 1002.6567,-240.24239 c 5.9707,-0.87616 5.4737,-0.64446 12.5262,-2.66206 3.5846,-1.02551 7.0678,-2.3991 10.6784,-3.32891 17.5098,-4.50911 35.7018,-6.66991 53.5137,-9.5785 46.7967,-5.83932 94.1477,-10.62172 141.384,-9.65485 9.1485,0.18726 18.2777,0.918 27.4166,1.37699 40.3861,1.67802 76.9199,18.50055 114.562,31.08241 31.2606,9.4653 64.0766,10.5673 96.4556,12.07194 0,0 -43.5851,31.40235 -43.5851,31.40235 v 0 c -33.375,-1.11098 -67.315,-1.54951 -99.3857,-12.01408 -36.2808,-13.26548 -71.9599,-29.26638 -111.1379,-31.59251 -8.8612,-0.52304 -17.7092,-1.37113 -26.5836,-1.56913 -47.7536,-1.06543 -95.5928,4.61807 -142.708,11.72591 -27.0317,5.00726 -54.44478,9.70471 -79.99462,20.22271 0,0 46.85842,-37.48227 46.85842,-37.48227 z"
         inkscape:connector-curvature="0" />
      <path
         inkscape:connector-curvature="0"
         d="m 195.72489,-158.25437 c 5.9707,-0.87616 5.47374,-0.64446 12.5262,-2.66206 3.58463,-1.02551 7.06783,-2.3991 10.67846,-3.32891 17.50984,-4.50911 35.70177,-6.66991 53.51368,-9.5785 46.7967,-5.83932 94.14772,-10.62172 141.38402,-9.65485 9.14847,0.18726 18.27774,0.918 27.41661,1.37699 40.38608,1.67802 76.91992,18.50055 114.562,31.08241 31.26063,9.4653 64.07657,10.5673 96.45557,12.07194 0,0 -43.58506,31.40235 -43.58506,31.40235 v 0 c -33.37507,-1.11098 -67.31504,-1.54951 -99.38577,-12.01408 -36.28071,-13.26548 -71.9599,-29.26638 -111.13786,-31.59251 -8.86119,-0.52304 -17.70916,-1.37113 -26.58355,-1.56913 -47.75366,-1.06543 -95.59286,4.61807 -142.7081,11.72591 -27.03166,5.00726 -54.44474,9.70471 -79.99458,20.22271 0,0 46.85838,-37.48227 46.85838,-37.48227 z"
         id="path5055"
         style="fill:#95eaff;fill-opacity:1;stroke:none;stroke-width:4.5;stroke-linejoin:miter;stroke-miterlimit:4;stroke-dasharray:none;stroke-dashoffset:0;stroke-opacity:1" />
    </g>
    <g
       id="g5057"
       transform="matrix(1.5823545,0,0,1.4699673,862.17859,1978.197)"
       style="fill:#95eaff;fill-opacity:1;stroke:none">
      <path
         style="fill:#95eaff;fill-opacity:1;stroke:none;stroke-width:4.5;stroke-linejoin:miter;stroke-miterlimit:4;stroke-dasharray:none;stroke-dashoffset:0;stroke-opacity:1"
         id="path5059"
         d="m -629.75005,-215.99873 c 5.9707,-0.87616 5.47374,-0.64446 12.5262,-2.66206 3.58463,-1.02551 7.06783,-2.3991 10.67846,-3.32891 17.50984,-4.50911 35.70177,-6.66991 53.51368,-9.5785 46.7967,-5.83932 94.14772,-10.62172 141.38402,-9.65485 9.14847,0.18726 18.27774,0.918 27.41661,1.37699 40.38608,1.67802 76.91992,18.50055 114.562,31.08241 31.26063,9.4653 64.07657,10.5673 96.45557,12.07194 0,0 -43.58506,31.40235 -43.58506,31.40235 v 0 c -33.37507,-1.11098 -67.31504,-1.54951 -99.38577,-12.01408 -36.28071,-13.26548 -71.9599,-29.26638 -111.13786,-31.59251 -8.86119,-0.52304 -17.70916,-1.37113 -26.58355,-1.56913 -47.75366,-1.06543 -95.59286,4.61807 -142.7081,11.72591 -27.03166,5.00726 -54.44474,9.70471 -79.99458,20.22271 0,0 46.85838,-37.48227 46.85838,-37.48227 z"
         inkscape:connector-curvature="0" />
      <path
         inkscape:connector-curvature="0"
         d="m 1002.6567,-240.24239 c 5.9707,-0.87616 5.4737,-0.64446 12.5262,-2.66206 3.5846,-1.02551 7.0678,-2.3991 10.6784,-3.32891 17.5098,-4.50911 35.7018,-6.66991 53.5137,-9.5785 46.7967,-5.83932 94.1477,-10.62172 141.384,-9.65485 9.1485,0.18726 18.2777,0.918 27.4166,1.37699 40.3861,1.67802 76.9199,18.50055 114.562,31.08241 31.2606,9.4653 64.0766,10.5673 96.4556,12.07194 0,0 -43.5851,31.40235 -43.5851,31.40235 v 0 c -33.375,-1.11098 -67.315,-1.54951 -99.3857,-12.01408 -36.2808,-13.26548 -71.9599,-29.26638 -111.1379,-31.59251 -8.8612,-0.52304 -17.7092,-1.37113 -26.5836,-1.56913 -47.7536,-1.06543 -95.5928,4.61807 -142.708,11.72591 -27.0317,5.00726 -54.44478,9.70471 -79.99462,20.22271 0,0 46.85842,-37.48227 46.85842,-37.48227 z"
         id="path5061"
         style="fill:#95eaff;fill-opacity:1;stroke:none;stroke-width:4.5;stroke-linejoin:miter;stroke-miterlimit:4;stroke-dasharray:none;stroke-dashoffset:0;stroke-opacity:1" />
      <path
         style="fill:#95eaff;fill-opacity:1;stroke:none;stroke-width:4.5;stroke-linejoin:miter;stroke-miterlimit:4;stroke-dasharray:none;stroke-dashoffset:0;stroke-opacity:1"
         id="path5063"
         d="m 195.72489,-158.25437 c 5.9707,-0.87616 5.47374,-0.64446 12.5262,-2.66206 3.58463,-1.02551 7.06783,-2.3991 10.67846,-3.32891 17.50984,-4.50911 35.70177,-6.66991 53.51368,-9.5785 46.7967,-5.83932 94.14772,-10.62172 141.38402,-9.65485 9.14847,0.18726 18.27774,0.918 27.41661,1.37699 40.38608,1.67802 76.91992,18.50055 114.562,31.08241 31.26063,9.4653 64.07657,10.5673 96.45557,12.07194 0,0 -43.58506,31.40235 -43.58506,31.40235 v 0 c -33.37507,-1.11098 -67.31504,-1.54951 -99.38577,-12.01408 -36.28071,-13.26548 -71.9599,-29.26638 -111.13786,-31.59251 -8.86119,-0.52304 -17.70916,-1.37113 -26.58355,-1.56913 -47.75366,-1.06543 -95.59286,4.61807 -142.7081,11.72591 -27.03166,5.00726 -54.44474,9.70471 -79.99458,20.22271 0,0 46.85838,-37.48227 46.85838,-37.48227 z"
         inkscape:connector-curvature="0" />
    </g>
    <g
       transform="matrix(1.5823545,0,0,1.4699673,415.48058,1598.0648)"
       id="g5065"
       style="fill:#95eaff;fill-opacity:1;stroke:none">
      <path
         inkscape:connector-curvature="0"
         d="m -629.75005,-215.99873 c 5.9707,-0.87616 5.47374,-0.64446 12.5262,-2.66206 3.58463,-1.02551 7.06783,-2.3991 10.67846,-3.32891 17.50984,-4.50911 35.70177,-6.66991 53.51368,-9.5785 46.7967,-5.83932 94.14772,-10.62172 141.38402,-9.65485 9.14847,0.18726 18.27774,0.918 27.41661,1.37699 40.38608,1.67802 76.91992,18.50055 114.562,31.08241 31.26063,9.4653 64.07657,10.5673 96.45557,12.07194 0,0 -43.58506,31.40235 -43.58506,31.40235 v 0 c -33.37507,-1.11098 -67.31504,-1.54951 -99.38577,-12.01408 -36.28071,-13.26548 -71.9599,-29.26638 -111.13786,-31.59251 -8.86119,-0.52304 -17.70916,-1.37113 -26.58355,-1.56913 -47.75366,-1.06543 -95.59286,4.61807 -142.7081,11.72591 -27.03166,5.00726 -54.44474,9.70471 -79.99458,20.22271 0,0 46.85838,-37.48227 46.85838,-37.48227 z"
         id="path5067"
         style="fill:#95eaff;fill-opacity:1;stroke:none;stroke-width:4.5;stroke-linejoin:miter;stroke-miterlimit:4;stroke-dasharray:none;stroke-dashoffset:0;stroke-opacity:1" />
      <path
         style="fill:#95eaff;fill-opacity:1;stroke:none;stroke-width:4.5;stroke-linejoin:miter;stroke-miterlimit:4;stroke-dasharray:none;stroke-dashoffset:0;stroke-opacity:1"
         id="path5069"
         d="m 1002.6567,-240.24239 c 5.9707,-0.87616 5.4737,-0.64446 12.5262,-2.66206 3.5846,-1.02551 7.0678,-2.3991 10.6784,-3.32891 17.5098,-4.50911 35.7018,-6.66991 53.5137,-9.5785 46.7967,-5.83932 94.1477,-10.62172 141.384,-9.65485 9.1485,0.18726 18.2777,0.918 27.4166,1.37699 40.3861,1.67802 76.9199,18.50055 114.562,31.08241 31.2606,9.4653 64.0766,10.5673 96.4556,12.07194 0,0 -43.5851,31.40235 -43.5851,31.40235 v 0 c -33.375,-1.11098 -67.315,-1.54951 -99.3857,-12.01408 -36.2808,-13.26548 -71.9599,-29.26638 -111.1379,-31.59251 -8.8612,-0.52304 -17.7092,-1.37113 -26.5836,-1.56913 -47.7536,-1.06543 -95.5928,4.61807 -142.708,11.72591 -27.0317,5.00726 -54.44478,9.70471 -79.99462,20.22271 0,0 46.85842,-37.48227 46.85842,-37.48227 z"
         inkscape:connector-curvature="0" />
      <path
         inkscape:connector-curvature="0"
         d="m 195.72489,-158.25437 c 5.9707,-0.87616 5.47374,-0.64446 12.5262,-2.66206 3.58463,-1.02551 7.06783,-2.3991 10.67846,-3.32891 17.50984,-4.50911 35.70177,-6.66991 53.51368,-9.5785 46.7967,-5.83932 94.14772,-10.62172 141.38402,-9.65485 9.14847,0.18726 18.27774,0.918 27.41661,1.37699 40.38608,1.67802 76.91992,18.50055 114.562,31.08241 31.26063,9.4653 64.07657,10.5673 96.45557,12.07194 0,0 -43.58506,31.40235 -43.58506,31.40235 v 0 c -33.37507,-1.11098 -67.31504,-1.54951 -99.38577,-12.01408 -36.28071,-13.26548 -71.9599,-29.26638 -111.13786,-31.59251 -8.86119,-0.52304 -17.70916,-1.37113 -26.58355,-1.56913 -47.75366,-1.06543 -95.59286,4.61807 -142.7081,11.72591 -27.03166,5.00726 -54.44474,9.70471 -79.99458,20.22271 0,0 46.85838,-37.48227 46.85838,-37.48227 z"
         id="path5071"
         style="fill:#95eaff;fill-opacity:1;stroke:none;stroke-width:4.5;stroke-linejoin:miter;stroke-miterlimit:4;stroke-dasharray:none;stroke-dashoffset:0;stroke-opacity:1" />
    </g>
    <g
       id="g5073"
       transform="matrix(1.5823545,0,0,1.4699673,874.96593,1229.8118)"
       style="fill:#95eaff;fill-opacity:1;stroke:none">
      <path
         style="fill:#95eaff;fill-opacity:1;stroke:none;stroke-width:4.5;stroke-linejoin:miter;stroke-miterlimit:4;stroke-dasharray:none;stroke-dashoffset:0;stroke-opacity:1"
         id="path5075"
         d="m -629.75005,-215.99873 c 5.9707,-0.87616 5.47374,-0.64446 12.5262,-2.66206 3.58463,-1.02551 7.06783,-2.3991 10.67846,-3.32891 17.50984,-4.50911 35.70177,-6.66991 53.51368,-9.5785 46.7967,-5.83932 94.14772,-10.62172 141.38402,-9.65485 9.14847,0.18726 18.27774,0.918 27.41661,1.37699 40.38608,1.67802 76.91992,18.50055 114.562,31.08241 31.26063,9.4653 64.07657,10.5673 96.45557,12.07194 0,0 -43.58506,31.40235 -43.58506,31.40235 v 0 c -33.37507,-1.11098 -67.31504,-1.54951 -99.38577,-12.01408 -36.28071,-13.26548 -71.9599,-29.26638 -111.13786,-31.59251 -8.86119,-0.52304 -17.70916,-1.37113 -26.58355,-1.56913 -47.75366,-1.06543 -95.59286,4.61807 -142.7081,11.72591 -27.03166,5.00726 -54.44474,9.70471 -79.99458,20.22271 0,0 46.85838,-37.48227 46.85838,-37.48227 z"
         inkscape:connector-curvature="0" />
      <path
         inkscape:connector-curvature="0"
         d="m 1002.6567,-240.24239 c 5.9707,-0.87616 5.4737,-0.64446 12.5262,-2.66206 3.5846,-1.02551 7.0678,-2.3991 10.6784,-3.32891 17.5098,-4.50911 35.7018,-6.66991 53.5137,-9.5785 46.7967,-5.83932 94.1477,-10.62172 141.384,-9.65485 9.1485,0.18726 18.2777,0.918 27.4166,1.37699 40.3861,1.67802 76.9199,18.50055 114.562,31.08241 31.2606,9.4653 64.0766,10.5673 96.4556,12.07194 0,0 -43.5851,31.40235 -43.5851,31.40235 v 0 c -33.375,-1.11098 -67.315,-1.54951 -99.3857,-12.01408 -36.2808,-13.26548 -71.9599,-29.26638 -111.1379,-31.59251 -8.8612,-0.52304 -17.7092,-1.37113 -26.5836,-1.56913 -47.7536,-1.06543 -95.5928,4.61807 -142.708,11.72591 -27.0317,5.00726 -54.44478,9.70471 -79.99462,20.22271 0,0 46.85842,-37.48227 46.85842,-37.48227 z"
         id="path5077"
         style="fill:#95eaff;fill-opacity:1;stroke:none;stroke-width:4.5;stroke-linejoin:miter;stroke-miterlimit:4;stroke-dasharray:none;stroke-dashoffset:0;stroke-opacity:1" />
      <path
         style="fill:#95eaff;fill-opacity:1;stroke:none;stroke-width:4.5;stroke-linejoin:miter;stroke-miterlimit:4;stroke-dasharray:none;stroke-dashoffset:0;stroke-opacity:1"
         id="path5079"
         d="m 195.72489,-158.25437 c 5.9707,-0.87616 5.47374,-0.64446 12.5262,-2.66206 3.58463,-1.02551 7.06783,-2.3991 10.67846,-3.32891 17.50984,-4.50911 35.70177,-6.66991 53.51368,-9.5785 46.7967,-5.83932 94.14772,-10.62172 141.38402,-9.65485 9.14847,0.18726 18.27774,0.918 27.41661,1.37699 40.38608,1.67802 76.91992,18.50055 114.562,31.08241 31.26063,9.4653 64.07657,10.5673 96.45557,12.07194 0,0 -43.58506,31.40235 -43.58506,31.40235 v 0 c -33.37507,-1.11098 -67.31504,-1.54951 -99.38577,-12.01408 -36.28071,-13.26548 -71.9599,-29.26638 -111.13786,-31.59251 -8.86119,-0.52304 -17.70916,-1.37113 -26.58355,-1.56913 -47.75366,-1.06543 -95.59286,4.61807 -142.7081,11.72591 -27.03166,5.00726 -54.44474,9.70471 -79.99458,20.22271 0,0 46.85838,-37.48227 46.85838,-37.48227 z"
         inkscape:connector-curvature="0" />
    </g>
    <g
       transform="matrix(1.5823545,0,0,1.4699673,466.63,2358.3292)"
       id="g5081"
       style="fill:#95eaff;fill-opacity:1;stroke:none">
      <path
         inkscape:connector-curvature="0"
         d="m -629.75005,-215.99873 c 5.9707,-0.87616 5.47374,-0.64446 12.5262,-2.66206 3.58463,-1.02551 7.06783,-2.3991 10.67846,-3.32891 17.50984,-4.50911 35.70177,-6.66991 53.51368,-9.5785 46.7967,-5.83932 94.14772,-10.62172 141.38402,-9.65485 9.14847,0.18726 18.27774,0.918 27.41661,1.37699 40.38608,1.67802 76.91992,18.50055 114.562,31.08241 31.26063,9.4653 64.07657,10.5673 96.45557,12.07194 0,0 -43.58506,31.40235 -43.58506,31.40235 v 0 c -33.37507,-1.11098 -67.31504,-1.54951 -99.38577,-12.01408 -36.28071,-13.26548 -71.9599,-29.26638 -111.13786,-31.59251 -8.86119,-0.52304 -17.70916,-1.37113 -26.58355,-1.56913 -47.75366,-1.06543 -95.59286,4.61807 -142.7081,11.72591 -27.03166,5.00726 -54.44474,9.70471 -79.99458,20.22271 0,0 46.85838,-37.48227 46.85838,-37.48227 z"
         id="path5083"
         style="fill:#95eaff;fill-opacity:1;stroke:none;stroke-width:4.5;stroke-linejoin:miter;stroke-miterlimit:4;stroke-dasharray:none;stroke-dashoffset:0;stroke-opacity:1" />
      <path
         style="fill:#95eaff;fill-opacity:1;stroke:none;stroke-width:4.5;stroke-linejoin:miter;stroke-miterlimit:4;stroke-dasharray:none;stroke-dashoffset:0;stroke-opacity:1"
         id="path5085"
         d="m 1002.6567,-240.24239 c 5.9707,-0.87616 5.4737,-0.64446 12.5262,-2.66206 3.5846,-1.02551 7.0678,-2.3991 10.6784,-3.32891 17.5098,-4.50911 35.7018,-6.66991 53.5137,-9.5785 46.7967,-5.83932 94.1477,-10.62172 141.384,-9.65485 9.1485,0.18726 18.2777,0.918 27.4166,1.37699 40.3861,1.67802 76.9199,18.50055 114.562,31.08241 31.2606,9.4653 64.0766,10.5673 96.4556,12.07194 0,0 -43.5851,31.40235 -43.5851,31.40235 v 0 c -33.375,-1.11098 -67.315,-1.54951 -99.3857,-12.01408 -36.2808,-13.26548 -71.9599,-29.26638 -111.1379,-31.59251 -8.8612,-0.52304 -17.7092,-1.37113 -26.5836,-1.56913 -47.7536,-1.06543 -95.5928,4.61807 -142.708,11.72591 -27.0317,5.00726 -54.44478,9.70471 -79.99462,20.22271 0,0 46.85842,-37.48227 46.85842,-37.48227 z"
         inkscape:connector-curvature="0" />
      <path
         inkscape:connector-curvature="0"
         d="m 195.72489,-158.25437 c 5.9707,-0.87616 5.47374,-0.64446 12.5262,-2.66206 3.58463,-1.02551 7.06783,-2.3991 10.67846,-3.32891 17.50984,-4.50911 35.70177,-6.66991 53.51368,-9.5785 46.7967,-5.83932 94.14772,-10.62172 141.38402,-9.65485 9.14847,0.18726 18.27774,0.918 27.41661,1.37699 40.38608,1.67802 76.91992,18.50055 114.562,31.08241 31.26063,9.4653 64.07657,10.5673 96.45557,12.07194 0,0 -43.58506,31.40235 -43.58506,31.40235 v 0 c -33.37507,-1.11098 -67.31504,-1.54951 -99.38577,-12.01408 -36.28071,-13.26548 -71.9599,-29.26638 -111.13786,-31.59251 -8.86119,-0.52304 -17.70916,-1.37113 -26.58355,-1.56913 -47.75366,-1.06543 -95.59286,4.61807 -142.7081,11.72591 -27.03166,5.00726 -54.44474,9.70471 -79.99458,20.22271 0,0 46.85838,-37.48227 46.85838,-37.48227 z"
         id="path5087"
         style="fill:#95eaff;fill-opacity:1;stroke:none;stroke-width:4.5;stroke-linejoin:miter;stroke-miterlimit:4;stroke-dasharray:none;stroke-dashoffset:0;stroke-opacity:1" />
    </g>
    <path
       style="fill:#95eaff;fill-opacity:1;stroke:none;stroke-width:6.86307;stroke-linejoin:miter;stroke-miterlimit:4;stroke-dasharray:none;stroke-dashoffset:0;stroke-opacity:1"
       id="path5032-9"
       d="m 3246.4864,-29.605974 c 9.4478,-1.287927 8.6614,-0.947336 19.8209,-3.913142 5.6721,-1.507466 11.1838,-3.526598 16.897,-4.893388 27.7068,-6.628245 56.4929,-9.80455 84.6777,-14.080082 74.049,-8.58361 148.975,-15.613581 223.7196,-14.192314 14.4762,0.275266 28.9218,1.34943 43.3828,2.02413 63.9051,2.466635 121.7145,27.195204 181.2777,45.690127 49.4653,13.9136813 101.3919,15.5335853 152.6269,17.7453573 0,0 -68.9671,46.1604267 -68.9671,46.1604267 v 0 c -52.811,-1.633104 -106.5161,-2.277729 -157.2634,-17.660304 -57.409,-19.4998219 -113.866,-43.020622 -175.8595,-46.439957 -14.0216,-0.768852 -28.0223,-2.015516 -42.0647,-2.30657 -75.5631,-1.566147 -151.2617,6.788412 -225.8146,17.2367043 -42.7738,7.3605089 -86.151,14.2656067 -126.5799,29.7267227 0,0 74.1466,-55.097711 74.1466,-55.097711 z"
       inkscape:connector-curvature="0" />
    <path
       inkscape:connector-curvature="0"
       d="m 3667.6097,314.88884 c 9.4478,-1.28792 8.6614,-0.94733 19.8209,-3.91314 5.6721,-1.50746 11.1838,-3.5266 16.897,-4.89339 27.7068,-6.62824 56.4929,-9.80455 84.6777,-14.08008 74.049,-8.58361 148.975,-15.61358 223.7196,-14.19231 14.4762,0.27526 28.9218,1.34943 43.3828,2.02413 63.9051,2.46663 121.7145,27.1952 181.2777,45.69012 49.4653,13.91369 101.3919,15.53359 152.6269,17.74536 0,0 -68.9671,46.16043 -68.9671,46.16043 v 0 c -52.811,-1.63311 -106.5161,-2.27773 -157.2634,-17.66031 -57.409,-19.49982 -113.866,-43.02062 -175.8595,-46.43995 -14.0216,-0.76885 -28.0223,-2.01552 -42.0647,-2.30657 -75.5631,-1.56615 -151.2617,6.78841 -225.8146,17.2367 -42.7738,7.36051 -86.151,14.26561 -126.5799,29.72672 0,0 74.1466,-55.09771 74.1466,-55.09771 z"
       id="path5045-6"
       style="fill:#95eaff;fill-opacity:1;stroke:none;stroke-width:6.86307;stroke-linejoin:miter;stroke-miterlimit:4;stroke-dasharray:none;stroke-dashoffset:0;stroke-opacity:1" />
    <path
       style="fill:#95eaff;fill-opacity:1;stroke:none;stroke-width:6.86307;stroke-linejoin:miter;stroke-miterlimit:4;stroke-dasharray:none;stroke-dashoffset:0;stroke-opacity:1"
       id="path5053-8"
       d="m 3259.2738,671.26275 c 9.4478,-1.28792 8.6614,-0.94733 19.8209,-3.91314 5.6721,-1.50746 11.1838,-3.5266 16.897,-4.89339 27.7068,-6.62824 56.4929,-9.80455 84.6777,-14.08008 74.049,-8.58361 148.975,-15.61358 223.7196,-14.19231 14.4762,0.27526 28.9218,1.34943 43.3828,2.02413 63.9051,2.46663 121.7145,27.1952 181.2777,45.69012 49.4653,13.91369 101.3919,15.53359 152.6269,17.74536 0,0 -68.9671,46.16043 -68.9671,46.16043 v 0 c -52.811,-1.63311 -106.5161,-2.27773 -157.2634,-17.66031 -57.409,-19.49982 -113.866,-43.02062 -175.8595,-46.43995 -14.0216,-0.76885 -28.0223,-2.01552 -42.0647,-2.30657 -75.5631,-1.56615 -151.2617,6.78841 -225.8146,17.2367 -42.7738,7.36051 -86.151,14.26561 -126.5799,29.72672 0,0 74.1466,-55.09771 74.1466,-55.09771 z"
       inkscape:connector-curvature="0" />
    <path
       inkscape:connector-curvature="0"
       d="m 3667.6097,1799.7802 c 9.4478,-1.2879 8.6614,-0.9473 19.8209,-3.9131 5.6721,-1.5075 11.1838,-3.5266 16.897,-4.8934 27.7068,-6.6282 56.4929,-9.8045 84.6777,-14.0801 74.049,-8.5836 148.975,-15.6136 223.7196,-14.1923 14.4762,0.2753 28.9218,1.3494 43.3828,2.0241 63.9051,2.4667 121.7145,27.1953 181.2777,45.6902 49.4653,13.9137 101.3919,15.5336 152.6269,17.7453 0,0 -68.9671,46.1605 -68.9671,46.1605 v 0 c -52.811,-1.6331 -106.5161,-2.2778 -157.2634,-17.6603 -57.409,-19.4999 -113.866,-43.0207 -175.8595,-46.44 -14.0216,-0.7689 -28.0223,-2.0155 -42.0647,-2.3066 -75.5631,-1.5661 -151.2617,6.7884 -225.8146,17.2367 -42.7738,7.3605 -86.151,14.2656 -126.5799,29.7268 0,0 74.1466,-55.0978 74.1466,-55.0978 z"
       id="path5061-6"
       style="fill:#95eaff;fill-opacity:1;stroke:none;stroke-width:6.86307;stroke-linejoin:miter;stroke-miterlimit:4;stroke-dasharray:none;stroke-dashoffset:0;stroke-opacity:1" />
    <path
       style="fill:#95eaff;fill-opacity:1;stroke:none;stroke-width:6.86307;stroke-linejoin:miter;stroke-miterlimit:4;stroke-dasharray:none;stroke-dashoffset:0;stroke-opacity:1"
       id="path5069-4"
       d="m 3220.9116,1419.648 c 9.4478,-1.2879 8.6614,-0.9473 19.8209,-3.9131 5.6721,-1.5075 11.1838,-3.5266 16.897,-4.8934 27.7068,-6.6282 56.4929,-9.8045 84.6777,-14.0801 74.049,-8.5836 148.975,-15.6136 223.7196,-14.1923 14.4762,0.2753 28.9218,1.3494 43.3828,2.0241 63.9051,2.4667 121.7145,27.1953 181.2777,45.6902 49.4653,13.9137 101.3919,15.5336 152.6269,17.7453 0,0 -68.9671,46.1605 -68.9671,46.1605 v 0 c -52.811,-1.6331 -106.5161,-2.2778 -157.2634,-17.6603 -57.409,-19.4999 -113.866,-43.0207 -175.8595,-46.44 -14.0216,-0.7689 -28.0223,-2.0155 -42.0647,-2.3066 -75.5631,-1.5661 -151.2617,6.7884 -225.8146,17.2367 -42.7738,7.3605 -86.151,14.2656 -126.5799,29.7268 0,0 74.1466,-55.0978 74.1466,-55.0978 z"
       inkscape:connector-curvature="0" />
    <path
       inkscape:connector-curvature="0"
       d="m 3680.397,1051.395 c 9.4478,-1.2879 8.6614,-0.9473 19.8209,-3.9131 5.6721,-1.5075 11.1838,-3.5266 16.897,-4.8934 27.7068,-6.6282 56.4929,-9.8045 84.6777,-14.0801 74.049,-8.5836 148.975,-15.6136 223.7196,-14.1923 14.4762,0.2753 28.9218,1.3494 43.3828,2.0241 63.9051,2.4667 121.7145,27.1953 181.2777,45.6902 49.4653,13.9137 101.3919,15.5336 152.6269,17.7453 0,0 -68.9671,46.1605 -68.9671,46.1605 v 0 c -52.811,-1.6331 -106.5161,-2.2778 -157.2634,-17.6603 -57.409,-19.4999 -113.866,-43.0207 -175.8595,-46.44 -14.0216,-0.7689 -28.0223,-2.0155 -42.0647,-2.3066 -75.5631,-1.5661 -151.2617,6.7884 -225.8146,17.2367 -42.7738,7.3605 -86.151,14.2656 -126.5799,29.7268 0,0 74.1466,-55.0978 74.1466,-55.0978 z"
       id="path5077-5"
       style="fill:#95eaff;fill-opacity:1;stroke:none;stroke-width:6.86307;stroke-linejoin:miter;stroke-miterlimit:4;stroke-dasharray:none;stroke-dashoffset:0;stroke-opacity:1" />
    <path
       style="fill:#95eaff;fill-opacity:1;stroke:none;stroke-width:6.86307;stroke-linejoin:miter;stroke-miterlimit:4;stroke-dasharray:none;stroke-dashoffset:0;stroke-opacity:1"
       id="path5085-3"
       d="m 3272.0611,2179.9124 c 9.4478,-1.2879 8.6614,-0.9473 19.8209,-3.9131 5.6721,-1.5075 11.1838,-3.5266 16.897,-4.8934 27.7068,-6.6282 56.4929,-9.8045 84.6777,-14.0801 74.049,-8.5836 148.975,-15.6136 223.7196,-14.1923 14.4762,0.2753 28.9218,1.3494 43.3828,2.0241 63.9051,2.4667 121.7145,27.1953 181.2777,45.6902 49.4653,13.9137 101.3919,15.5336 152.6269,17.7453 0,0 -68.9671,46.1605 -68.9671,46.1605 v 0 c -52.811,-1.6331 -106.5161,-2.2778 -157.2634,-17.6603 -57.409,-19.4999 -113.866,-43.0207 -175.8595,-46.44 -14.0216,-0.7689 -28.0223,-2.0155 -42.0647,-2.3066 -75.5631,-1.5661 -151.2617,6.7884 -225.8146,17.2367 -42.7738,7.3605 -86.151,14.2656 -126.5799,29.7268 0,0 74.1466,-55.0978 74.1466,-55.0978 z"
       inkscape:connector-curvature="0" />
  </g>
</svg>
