<?xml version="1.0" encoding="UTF-8" standalone="no"?>
<!-- Created with Inkscape (http://www.inkscape.org/) -->

<svg
   width="150.34895mm"
   height="89.498535mm"
   viewBox="0 0 532.73251 317.12079"
   id="svg2"
   version="1.1"
   inkscape:version="1.1 (c68e22c387, 2021-05-23)"
   sodipodi:docname="fly.svg"
   inkscape:export-filename="C:\Users\David\Desktop\Files\number-nibbler\assets\image\fly.png"
   inkscape:export-xdpi="37.16687"
   inkscape:export-ydpi="37.16687"
   xmlns:inkscape="http://www.inkscape.org/namespaces/inkscape"
   xmlns:sodipodi="http://sodipodi.sourceforge.net/DTD/sodipodi-0.dtd"
   xmlns="http://www.w3.org/2000/svg"
   xmlns:svg="http://www.w3.org/2000/svg"
   xmlns:rdf="http://www.w3.org/1999/02/22-rdf-syntax-ns#"
   xmlns:cc="http://creativecommons.org/ns#"
   xmlns:dc="http://purl.org/dc/elements/1.1/">
  <defs
     id="defs4" />
  <sodipodi:namedview
     id="base"
     pagecolor="#ffffff"
     bordercolor="#666666"
     borderopacity="1.0"
     inkscape:pageopacity="0.0"
     inkscape:pageshadow="2"
     inkscape:zoom="2"
     inkscape:cx="293.25"
     inkscape:cy="214.5"
     inkscape:document-units="px"
     inkscape:current-layer="layer1"
     showgrid="false"
     inkscape:window-width="3584"
     inkscape:window-height="1906"
     inkscape:window-x="-12"
     inkscape:window-y="415"
     inkscape:window-maximized="1"
     fit-margin-top="0.3"
     fit-margin-left="0.2"
     fit-margin-right="0.1"
     fit-margin-bottom="0.1"
     inkscape:pagecheckerboard="0" />
  <metadata
     id="metadata7">
    <rdf:RDF>
      <cc:Work
         rdf:about="">
        <dc:format>image/svg+xml</dc:format>
        <dc:type
           rdf:resource="http://purl.org/dc/dcmitype/StillImage" />
        <dc:title />
      </cc:Work>
    </rdf:RDF>
  </metadata>
  <g
     inkscape:label="Layer 1"
     inkscape:groupmode="layer"
     id="layer1"
     transform="translate(-134.43421,-248.74297)">
    <path
       sodipodi:nodetypes="ssccs"
       inkscape:connector-curvature="0"
       id="path3417"
       d="m 352.18496,297.66472 c 0,0 123.03173,103.57764 115.31802,117.5991 -7.39375,13.43986 -153.85036,-38.4915 -153.85036,-38.4915 -87.8895,-35.72573 -149.66601,-71.51316 -136.96508,-98.21847 0,0 58.2862,-65.58766 175.49742,19.11087 z"
       style="fill:#85979f;fill-opacity:1;stroke:#000000;stroke-width:4.79282236;stroke-linecap:round;stroke-linejoin:miter;stroke-miterlimit:4;stroke-dasharray:none;stroke-opacity:1" />
    <path
       inkscape:connector-curvature="0"
       id="path4233"
       d="m 184.94766,460.33049 -23.16697,29.12111 6.64955,37.1253"
       style="fill:none;fill-rule:evenodd;stroke:#000000;stroke-width:5;stroke-linecap:butt;stroke-linejoin:miter;stroke-miterlimit:4;stroke-dasharray:none;stroke-opacity:1"
       sodipodi:nodetypes="ccc" />
    <path
       inkscape:connector-curvature="0"
       id="path4237"
       d="m 342.14337,509.57929 -19.24917,33.27928 19.40082,19.59581"
       style="fill:none;fill-rule:evenodd;stroke:#000000;stroke-width:5;stroke-linecap:butt;stroke-linejoin:miter;stroke-miterlimit:4;stroke-dasharray:none;stroke-opacity:1"
       sodipodi:nodetypes="ccc" />
    <path
       inkscape:connector-curvature="0"
       id="path4241"
       d="m 465.53571,492.89792 23.92858,28.57143 -5.71429,14.28572"
       style="fill:none;fill-rule:evenodd;stroke:#000000;stroke-width:5;stroke-linecap:butt;stroke-linejoin:miter;stroke-miterlimit:4;stroke-dasharray:none;stroke-opacity:1" />
    <ellipse
       style="fill:#ffdd55;fill-opacity:1;stroke:#000000;stroke-width:4.13098001;stroke-linecap:round;stroke-linejoin:miter;stroke-miterlimit:4;stroke-dasharray:none;stroke-opacity:1"
       id="path3344"
       cx="427.82083"
       cy="515.80658"
       rx="18.801783"
       ry="43.065945"
       transform="matrix(0.97659978,-0.21506482,0.27813846,0.96054099,0,0)" />
    <path
       style="fill:#b6cefc;fill-opacity:1;stroke:#000000;stroke-width:3.86877;stroke-linecap:round;stroke-linejoin:miter;stroke-miterlimit:4;stroke-dasharray:none;stroke-opacity:1"
       d="m 548.80277,449.49384 c 0,45.74501 -92.13079,82.82867 -205.77989,82.82867 -113.6491,0 -205.77989,-68.67132 -205.77989,-82.82867 0,-12.15871 92.13079,-82.82867 205.77989,-82.82867 113.6491,0 205.77989,37.08366 205.77989,82.82867 z"
       id="path3340"
       inkscape:connector-curvature="0"
       sodipodi:nodetypes="sssss" />
    <rect
       style="fill:#ffffff;fill-opacity:1;stroke:#000000;stroke-width:4.36637592;stroke-linecap:round;stroke-linejoin:miter;stroke-miterlimit:4;stroke-dasharray:none;stroke-opacity:1"
       id="rect4223"
       width="275.57404"
       height="69.859764"
       x="225.69685"
       y="423.32516" />
    <ellipse
       style="fill:#b6cefc;fill-opacity:1;stroke:#000000;stroke-width:3.86899996;stroke-linecap:round;stroke-linejoin:miter;stroke-miterlimit:4;stroke-dasharray:none;stroke-opacity:1"
       id="path3342"
       cx="555.71429"
       cy="443.94919"
       rx="32.922615"
       ry="77.366776" />
    <ellipse
       transform="matrix(0.97659978,-0.21506482,0.27813846,0.96054099,0,0)"
       ry="43.065945"
       rx="18.801783"
       cy="515.44757"
       cx="432.86005"
       id="ellipse4247"
       style="fill:#ffe755;fill-opacity:1;stroke:#000000;stroke-width:4.13098001;stroke-linecap:round;stroke-linejoin:miter;stroke-miterlimit:4;stroke-dasharray:none;stroke-opacity:1" />
    <path
       style="fill:#b6cefc;fill-opacity:1;fill-rule:evenodd;stroke:#000000;stroke-width:3.87320638;stroke-linecap:butt;stroke-linejoin:miter;stroke-miterlimit:4;stroke-dasharray:none;stroke-opacity:1"
       d="m 586.0953,445.99334 c 0,0 18.38722,9.29664 76.58429,13.1931 0,0 3.62156,3.02187 -0.32123,7.48014 0,0 -72.67572,-7.23337 -77.86365,1.53741"
       id="path3399"
       inkscape:connector-curvature="0"
       sodipodi:nodetypes="cccc" />
    <ellipse
       transform="matrix(0.97595444,-0.2179746,0.3040729,0.95264877,0,0)"
       ry="30.120411"
       rx="10.466721"
       cy="513.42938"
       cx="422.57294"
       id="ellipse3387"
       style="fill:#000000;fill-opacity:1;stroke:#000000;stroke-width:2.5776403;stroke-linecap:round;stroke-linejoin:miter;stroke-miterlimit:4;stroke-dasharray:none;stroke-opacity:1" />
    <path
       sodipodi:nodetypes="asssssssssssa"
       inkscape:connector-curvature="0"
       id="path4308"
       d="m 343.50823,295.64394 c -5.82285,-2.01407 -13.35912,-5.42199 -17.05895,-7.1169 -21.1587,-9.6929 -35.91788,-15.49822 -56.39177,-19.08553 -13.14358,-2.30294 -31.85847,-9.14705 -39.15604,-8.14919 -10.87965,1.48767 -27.75759,6.50345 -46.12272,17.66326 -1.30013,0.79004 -5.35646,2.6885 -5.35646,2.6885 -0.29789,-1.77247 3.463,-4.29029 5.51724,-5.94261 2.03039,-1.63312 6.96878,-4.95075 9.63103,-6.47016 9.46445,-5.40158 20.88694,-9.25542 32.43125,-10.94197 8.72564,-1.27477 19.21121,-1.40256 28.51471,-0.34752 24.35226,2.76163 50.11222,12.5954 77.45058,29.56648 3.86577,2.39979 13.83433,8.90141 13.83433,9.04981 0,0.19253 -2.21654,-0.54177 -3.2932,-0.91417 z"
       style="fill:#9aaab0;fill-opacity:1;stroke:#4d88e5;stroke-width:0;stroke-miterlimit:4;stroke-dasharray:none;stroke-opacity:1" />
    <path
       style="fill:#85979f;fill-opacity:1;stroke:#000000;stroke-width:4.79282236;stroke-linecap:round;stroke-linejoin:miter;stroke-miterlimit:4;stroke-dasharray:none;stroke-opacity:1"
       d="m 383.61353,295.52186 c 0,0 123.03173,103.57764 115.31802,117.5991 -7.39375,13.43986 -153.85036,-38.4915 -153.85036,-38.4915 -87.8895,-35.72573 -149.66601,-71.51316 -136.96508,-98.21847 0,0 58.2862,-65.58766 175.49742,19.11087 z"
       id="path3380"
       inkscape:connector-curvature="0"
       sodipodi:nodetypes="ssccs" />
    <path
       style="fill:none;fill-rule:evenodd;stroke:#000000;stroke-width:3.86899996;stroke-linecap:butt;stroke-linejoin:miter;stroke-miterlimit:4;stroke-dasharray:none;stroke-opacity:1"
       d="m 547.04505,470.23793 c 0,0 21.33203,14.59889 38.66924,7.83856"
       id="path4219"
       inkscape:connector-curvature="0"
       sodipodi:nodetypes="cc" />
    <path
       style="fill:none;fill-rule:evenodd;stroke:#000000;stroke-width:3.86899996;stroke-linecap:butt;stroke-linejoin:miter;stroke-miterlimit:4;stroke-dasharray:none;stroke-opacity:1"
       d="m 548.32343,461.23356 c 0,0 5.17225,8.14197 -7.38675,14.14213"
       id="path4221"
       inkscape:connector-curvature="0"
       sodipodi:nodetypes="cc" />
    <path
       style="fill:none;fill-rule:evenodd;stroke:#000000;stroke-width:5;stroke-linecap:butt;stroke-linejoin:miter;stroke-miterlimit:4;stroke-dasharray:none;stroke-opacity:1"
       d="m 193.44421,465.7161 -21.46574,23.23351 18.43528,44.44672"
       id="path4231"
       inkscape:connector-curvature="0"
       sodipodi:nodetypes="ccc" />
    <path
       style="fill:none;fill-rule:evenodd;stroke:#000000;stroke-width:5;stroke-linecap:butt;stroke-linejoin:miter;stroke-miterlimit:4;stroke-dasharray:none;stroke-opacity:1"
       d="m 361.82596,508.98512 -28.21428,32.14286 25.71428,22.5"
       id="path4235"
       inkscape:connector-curvature="0" />
    <path
       style="fill:none;fill-rule:evenodd;stroke:#000000;stroke-width:5;stroke-linecap:butt;stroke-linejoin:miter;stroke-miterlimit:4;stroke-dasharray:none;stroke-opacity:1"
       d="m 484.10714,500.93363 23.92858,28.57143 -5.71429,14.28572"
       id="path4239"
       inkscape:connector-curvature="0" />
    <path
       style="fill:none;fill-rule:evenodd;stroke:#0f191e;stroke-width:5;stroke-linecap:butt;stroke-linejoin:miter;stroke-miterlimit:4;stroke-dasharray:none;stroke-opacity:1"
       d="m 446.48743,382.63107 c 0,0 -109.07276,-103.39444 -192.93914,-88.89343"
       id="path4251"
       inkscape:connector-curvature="0"
       sodipodi:nodetypes="cc" />
    <path
       style="fill:#5b0000;fill-opacity:1;stroke:none;stroke-width:6.25;stroke-miterlimit:4;stroke-dasharray:none;stroke-opacity:1"
       d=""
       id="path4155"
       inkscape:connector-curvature="0"
       transform="translate(134.43421,248.74297)" />
    <path
       style="fill:#5b0000;fill-opacity:1;stroke:none;stroke-width:6.25;stroke-miterlimit:4;stroke-dasharray:none;stroke-opacity:1"
       d=""
       id="path4157"
       inkscape:connector-curvature="0"
       transform="translate(134.43421,248.74297)" />
    <path
       style="fill:#5b0000;fill-opacity:1;stroke:none;stroke-width:6.25;stroke-miterlimit:4;stroke-dasharray:none;stroke-opacity:1"
       d=""
       id="path4159"
       inkscape:connector-curvature="0"
       transform="translate(134.43421,248.74297)" />
    <path
       style="fill:#5b0000;fill-opacity:1;stroke:none;stroke-width:6.25;stroke-miterlimit:4;stroke-dasharray:none;stroke-opacity:1"
       d=""
       id="path4161"
       inkscape:connector-curvature="0"
       transform="translate(134.43421,248.74297)" />
    <path
       style="fill:#5b0000;fill-opacity:1;stroke:none;stroke-width:6.25;stroke-miterlimit:4;stroke-dasharray:none;stroke-opacity:1"
       d=""
       id="path4163"
       inkscape:connector-curvature="0"
       transform="translate(134.43421,248.74297)" />
    <rect
       style="fill:#b6cffc;fill-opacity:1;stroke:none;stroke-width:0.1;stroke-miterlimit:4;stroke-dasharray:none;stroke-opacity:1"
       id="rect4201"
       width="2.2097087"
       height="4.5078058"
       x="584.50769"
       y="444.50656" />
    <path
       style="fill:#9aaab0;fill-opacity:1;stroke:#4d88e5;stroke-width:0;stroke-miterlimit:4;stroke-dasharray:none;stroke-opacity:1"
       d="M 239.57402,44.400967 C 233.75117,42.386904 226.2149,38.978982 222.51507,37.284073 201.35637,27.591172 186.59719,21.785849 166.1233,18.198535 152.97972,15.895596 133.55772,13.647681 126.26015,14.645541 115.3805,16.133209 98.856125,21.325767 80.844536,28.950049 c -1.401,0.593042 -5.356453,1.451057 -5.356453,1.451057 -0.297895,-1.772463 3.463001,-4.29029 5.51724,-5.942603 2.030384,-1.633122 6.968775,-4.950755 9.631029,-6.470165 9.464448,-5.401581 20.886938,-9.2554145 32.431248,-10.9419725 8.72564,-1.2747676 19.21121,-1.402556 28.51471,-0.3475108 24.35226,2.7616231 50.11222,12.5953913 77.45058,29.5664773 3.86577,2.399792 13.83433,8.901404 13.83433,9.049807 0,0.192531 -2.21654,-0.541768 -3.2932,-0.914172 z"
       id="path4214"
       inkscape:connector-curvature="0"
       transform="translate(134.43421,248.74297)"
       sodipodi:nodetypes="asssssssssssa" />
    <path
       style="fill:#85adf7;fill-opacity:1;stroke:#4d88e5;stroke-width:0;stroke-miterlimit:4;stroke-dasharray:none;stroke-opacity:1"
       d="m 353.15404,169.90033 c -20.3806,-0.68746 -68.24026,-13.48115 -134.9375,-36.07107 -11.1079,-3.76217 -34.36411,-11.88129 -35.9375,-12.54636 -0.34628,-0.14637 -0.25534,-0.17009 1.1875,-0.30971 0.85937,-0.0832 2.9125,-0.24724 4.5625,-0.36461 l 3,-0.21341 4.9375,2.08189 c 13.26353,5.59257 15.71909,6.50848 33.5625,12.5186 53.15041,17.90245 92.06226,29.05432 114,32.67164 6.25421,1.03125 9.10197,1.31023 13.3125,1.30411 4.09609,-0.006 5.13461,-0.17846 7.59375,-1.2614 0.38226,-0.16834 0.10364,0.23212 -0.40495,0.58204 -1.8559,1.27689 -5.35621,1.79448 -10.8763,1.60828 z"
       id="path4224"
       inkscape:connector-curvature="0"
       transform="translate(134.43421,248.74297)" />
    <path
       style="fill:#697d87;fill-opacity:1;stroke:#4d88e5;stroke-width:0;stroke-miterlimit:4;stroke-dasharray:none;stroke-opacity:1"
       d="m 173.54318,117.66431 c -0.48125,-0.22827 -2.225,-1.02018 -3.875,-1.7598 -18.29755,-8.202 -38.64666,-18.191411 -52.625,-25.926094 C 72.743153,65.465737 69.92782,57.116235 66.193914,45.856705 c -0.536752,-1.618567 -0.705846,-2.599006 -0.707093,-4.099874 -0.0022,-2.643232 1.879299,-8.208887 3.812196,-11.897634 0.308165,-0.588102 1.213737,-1.579339 1.213737,-1.579339 l -0.964377,5.629852 0.07689,1.804188 c 0.04229,0.992303 0.143875,2.169813 0.225747,2.616688 1.596989,8.716769 8.24304,17.70787 20.509864,27.746743 C 106.32431,79.14142 132.069,93.827212 167.1565,109.8846 c 3.77769,1.72882 14.18878,6.36755 15.18129,6.76413 0.29668,0.11854 1.0248,0.31745 0.96875,0.36562 -0.056,0.0482 -1.70191,0.12287 -3.00816,0.24237 -1.30625,0.1195 -3.20625,0.30007 -3.34375,0.32487 -0.1375,0.0248 -2.9302,0.31097 -3.41145,0.0827 z"
       id="path4228"
       inkscape:connector-curvature="0"
       transform="translate(134.43421,248.74297)"
       sodipodi:nodetypes="cssssaccssssccsssc" />
    <path
       style="fill:#d8e6fe;fill-opacity:1;stroke:#4d88e5;stroke-width:0;stroke-miterlimit:4;stroke-dasharray:none;stroke-opacity:1"
       d="m 525.78319,213.20239 c -0.30938,-0.0237 -2.95313,-0.21113 -5.875,-0.41655 -31.15207,-2.19011 -53.39702,-5.11401 -62.42162,-8.20477 -1.71527,-0.58745 -4.40238,-2.76527 -4.76602,-3.1671 -0.18326,-0.20249 -0.37956,-1.72004 -0.37956,-1.72004 0,0 1.25133,0.52318 2.28765,0.89704 13.98728,5.04591 39.37476,9.31531 68.02955,11.44048 4.58925,0.34036 4.50284,0.33068 4.68696,0.52502 0.0887,0.0936 0.19916,0.29672 0.24554,0.45141 0.0806,0.26866 0.0546,0.28027 -0.58033,0.25941 -0.36557,-0.012 -0.9178,-0.0412 -1.22717,-0.0649 z"
       id="path4260"
       inkscape:connector-curvature="0"
       transform="translate(134.43421,248.74297)"
       sodipodi:nodetypes="sssccsscccs" />
    <path
       style="fill:#85adf7;fill-opacity:1;stroke:#4d88e5;stroke-width:0;stroke-miterlimit:4;stroke-dasharray:none;stroke-opacity:1"
       d="m 489.34112,503.18802 c -0.71537,-0.84869 -1.48896,-1.72048 -1.70624,-1.97729 l -1.57163,-1.85753 2.29769,-0.46664 c 2.59406,-0.52683 9.96683,-2.28091 11.29375,-2.82978 1.05221,-0.43523 1.55881,-0.54019 2.60745,-0.54019 l 1.30152,0 0,-0.53588 c 0,-0.35013 0.10723,-0.57443 0.30936,-0.64711 2.52797,-0.90901 11.78321,-5.12588 17.24594,-7.85759 3.88338,-1.94193 4.54178,-2.19295 4.54178,-1.73158 0,0.26503 -4.73134,3.73658 -8.3085,6.09624 -6.94306,4.57997 -13.4525,8.24288 -23.02202,12.46419 -1.83286,0.8085 -3.51853,1.5588 -3.59842,1.5588 -0.0799,0 -0.67531,-0.82696 -1.39068,-1.67564 z"
       id="path4268"
       inkscape:connector-curvature="0"
       sodipodi:nodetypes="sscssscssssssss" />
    <path
       style="fill:#85adf7;fill-opacity:1;stroke:#4d88e5;stroke-width:0;stroke-miterlimit:4;stroke-dasharray:none;stroke-opacity:1"
       d="m 347.20477,529.61545 c 3.23074,-3.70525 4.94023,-5.71287 5.15813,-5.71287 0.72991,0 11.53985,-0.5082 15.43625,-0.81345 41.92791,-3.2847 78.06655,-10.56584 111.23674,-21.26659 1.33687,-0.43127 3.83601,-1.31143 3.83601,-1.31143 l 2.9802,-1.0998 c 0.21768,-0.0803 -3.80556,3.08192 -3.61761,3.2696 0.71984,0.71887 1.17024,1.48836 1.61856,2.02807 0.92365,1.11196 1.67938,2.06805 1.67938,2.12467 0,0.0566 -0.45741,0.27108 -1.01646,0.4766 -0.55906,0.20551 -2.52791,0.92708 -4.37523,1.60348 -34.85532,12.76228 -80.02876,20.29205 -127.11906,21.18893 l -6.34714,0.12089 z"
       id="path4270"
       inkscape:connector-curvature="0"
       sodipodi:nodetypes="sssscsssscsscs" />
    <path
       style="fill:#85adf7;fill-opacity:1;stroke:#4d88e5;stroke-width:0;stroke-miterlimit:4;stroke-dasharray:none;stroke-opacity:1"
       d="m 333.15092,530.04809 c -12.99327,-0.54969 -23.42264,-1.54318 -35.00178,-3.33424 -5.97082,-0.92356 -8.73582,-0.99614 -5.65685,-1.35131 7.17782,-0.82799 40.49802,-0.76604 46.11771,-1.0023 2.85665,-0.1201 6.27429,-0.37243 6.29838,-0.34468 0.0241,0.0278 -2.07893,2.65459 -3.16098,3.89285 l -1.96735,2.2514 -2.74004,-0.0316 c -1.50702,-0.0174 -3.25711,-0.0534 -3.88909,-0.0802 z"
       id="path4272"
       inkscape:connector-curvature="0"
       sodipodi:nodetypes="cssscscccc" />
    <path
       style="fill:#d8e6fe;fill-opacity:1;stroke:#4d88e5;stroke-width:0;stroke-miterlimit:4;stroke-dasharray:none;stroke-opacity:1"
       d="m 176.99912,426.43606 c 6.61004,-4.69785 25.01554,-15.3932 25.01554,-15.3932 14.80224,-8.20269 50.08811,-22.07742 50.08811,-22.07742 -3.63841,4.30434 -30.28534,13.59914 -50.60329,27.56207 -12.31879,8.46573 -32.69462,18.11029 -39.60522,30.66265 -2.97781,5.40888 -2.66432,5.77689 -2.66432,5.77689 -6.01801,-12.04785 11.30971,-21.74098 17.76918,-26.53099 z"
       id="path4286"
       inkscape:connector-curvature="0"
       sodipodi:nodetypes="cccsscc" />
    <path
       style="fill:#85adf7;fill-opacity:1;stroke:#4d88e5;stroke-width:0;stroke-miterlimit:4;stroke-dasharray:none;stroke-opacity:1"
       d="m 420.41868,270.58484 c -2.74081,-0.18616 -5.59358,-1.37835 -8.26354,-3.4534 -1.61176,-1.25263 -3.37661,-3.03621 -4.8889,-4.94078 -2.5064,-3.15652 -4.92712,-7.3068 -7.01109,-12.02036 -0.49411,-1.11759 -1.15047,-2.6974 -1.12943,-2.71844 0.008,-0.008 0.14375,0.1478 0.30145,0.34644 3.44648,4.34142 7.49628,8.27523 11.13698,10.81797 3.78779,2.64548 7.2547,4.0995 11.00435,4.6152 0.79065,0.10875 2.72855,0.13464 3.62634,0.0485 3.03,-0.29087 5.91081,-1.40565 8.70793,-3.36966 2.27645,-1.59842 4.7201,-4.06309 6.81615,-6.87479 0.32016,-0.42946 0.5907,-0.77226 0.6012,-0.76176 0.027,0.027 -0.92314,1.90957 -1.48125,2.93473 -2.27054,4.17061 -4.62123,7.40661 -7.27247,10.01142 -3.41506,3.35526 -6.85729,5.11273 -10.51177,5.3669 -0.70624,0.0491 -0.88764,0.0489 -1.63595,-0.002 l 0,0 z"
       id="path4306"
       inkscape:connector-curvature="0"
       transform="translate(134.43421,248.74297)" />
  </g>
</svg>
