<?xml version="1.0" encoding="UTF-8" standalone="no"?>
<!-- Created with Inkscape (http://www.inkscape.org/) -->

<svg
   width="150.34895mm"
   height="89.498535mm"
   viewBox="0 0 532.73251 317.12079"
   id="svg2"
   version="1.1"
   inkscape:version="1.1 (c68e22c387, 2021-05-23)"
   sodipodi:docname="fly_1.svg"
   inkscape:export-filename="C:\Users\David\Desktop\Files\number-nibbler\assets\image\fly.png"
   inkscape:export-xdpi="37.16687"
   inkscape:export-ydpi="37.16687"
   xmlns:inkscape="http://www.inkscape.org/namespaces/inkscape"
   xmlns:sodipodi="http://sodipodi.sourceforge.net/DTD/sodipodi-0.dtd"
   xmlns="http://www.w3.org/2000/svg"
   xmlns:svg="http://www.w3.org/2000/svg"
   xmlns:rdf="http://www.w3.org/1999/02/22-rdf-syntax-ns#"
   xmlns:cc="http://creativecommons.org/ns#"
   xmlns:dc="http://purl.org/dc/elements/1.1/">
  <defs
     id="defs4" />
  <sodipodi:namedview
     id="base"
     pagecolor="#ffffff"
     bordercolor="#666666"
     borderopacity="1.0"
     inkscape:pageopacity="0.0"
     inkscape:pageshadow="2"
     inkscape:zoom="2"
     inkscape:cx="293.25"
     inkscape:cy="134.5"
     inkscape:document-units="px"
     inkscape:current-layer="layer1"
     showgrid="false"
     inkscape:window-width="3840"
     inkscape:window-height="2050"
     inkscape:window-x="2548"
     inkscape:window-y="-12"
     inkscape:window-maximized="1"
     fit-margin-top="0.3"
     fit-margin-left="0.2"
     fit-margin-right="0.1"
     fit-margin-bottom="0.1"
     inkscape:pagecheckerboard="0" />
  <metadata
     id="metadata7">
    <rdf:RDF>
      <cc:Work
         rdf:about="">
        <dc:format>image/svg+xml</dc:format>
        <dc:type
           rdf:resource="http://purl.org/dc/dcmitype/StillImage" />
      </cc:Work>
    </rdf:RDF>
  </metadata>
  <g
     inkscape:label="Layer 1"
     inkscape:groupmode="layer"
     id="layer1"
     transform="translate(-134.43421,-248.74297)">
    <path
       sodipodi:nodetypes="ssccs"
       inkscape:connector-curvature="0"
       id="path3417"
       d="m 317.22512,353.0551 c 0,0 158.33743,28.185 158.66789,44.18479 0.31675,15.33614 -152.48407,43.59057 -152.48407,43.59057 -93.97741,13.00536 -165.37115,12.90079 -167.72448,-16.57715 0,0 17.6835,-85.94368 161.54066,-71.19821 z"
       style="fill:#85979f;fill-opacity:1;stroke:#000000;stroke-width:4.79282;stroke-linecap:round;stroke-linejoin:miter;stroke-miterlimit:4;stroke-dasharray:none;stroke-opacity:1" />
    <path
       inkscape:connector-curvature="0"
       id="path4233"
       d="m 184.94766,460.33049 -23.16697,29.12111 6.64955,37.1253"
       style="fill:none;fill-rule:evenodd;stroke:#000000;stroke-width:5;stroke-linecap:butt;stroke-linejoin:miter;stroke-miterlimit:4;stroke-dasharray:none;stroke-opacity:1"
       sodipodi:nodetypes="ccc" />
    <path
       inkscape:connector-curvature="0"
       id="path4237"
       d="m 342.14337,509.57929 -19.24917,33.27928 19.40082,19.59581"
       style="fill:none;fill-rule:evenodd;stroke:#000000;stroke-width:5;stroke-linecap:butt;stroke-linejoin:miter;stroke-miterlimit:4;stroke-dasharray:none;stroke-opacity:1"
       sodipodi:nodetypes="ccc" />
    <path
       inkscape:connector-curvature="0"
       id="path4241"
       d="m 465.53571,492.89792 23.92858,28.57143 -5.71429,14.28572"
       style="fill:none;fill-rule:evenodd;stroke:#000000;stroke-width:5;stroke-linecap:butt;stroke-linejoin:miter;stroke-miterlimit:4;stroke-dasharray:none;stroke-opacity:1" />
    <ellipse
       style="fill:#ffdd55;fill-opacity:1;stroke:#000000;stroke-width:4.13098001;stroke-linecap:round;stroke-linejoin:miter;stroke-miterlimit:4;stroke-dasharray:none;stroke-opacity:1"
       id="path3344"
       cx="427.82083"
       cy="515.80658"
       rx="18.801783"
       ry="43.065945"
       transform="matrix(0.97659978,-0.21506482,0.27813846,0.96054099,0,0)" />
    <path
       style="fill:#b6cefc;fill-opacity:1;stroke:#000000;stroke-width:3.86877;stroke-linecap:round;stroke-linejoin:miter;stroke-miterlimit:4;stroke-dasharray:none;stroke-opacity:1"
       d="m 548.80277,449.49384 c 0,45.74501 -92.13079,82.82867 -205.77989,82.82867 -113.6491,0 -205.77989,-68.67132 -205.77989,-82.82867 0,-12.15871 92.13079,-82.82867 205.77989,-82.82867 113.6491,0 205.77989,37.08366 205.77989,82.82867 z"
       id="path3340"
       inkscape:connector-curvature="0"
       sodipodi:nodetypes="sssss" />
    <rect
       style="fill:#ffffff;fill-opacity:1;stroke:#000000;stroke-width:4.36637592;stroke-linecap:round;stroke-linejoin:miter;stroke-miterlimit:4;stroke-dasharray:none;stroke-opacity:1"
       id="rect4223"
       width="275.57404"
       height="69.859764"
       x="225.69685"
       y="423.32516" />
    <ellipse
       style="fill:#b6cefc;fill-opacity:1;stroke:#000000;stroke-width:3.86899996;stroke-linecap:round;stroke-linejoin:miter;stroke-miterlimit:4;stroke-dasharray:none;stroke-opacity:1"
       id="path3342"
       cx="555.71429"
       cy="443.94919"
       rx="32.922615"
       ry="77.366776" />
    <ellipse
       transform="matrix(0.97659978,-0.21506482,0.27813846,0.96054099,0,0)"
       ry="43.065945"
       rx="18.801783"
       cy="515.44757"
       cx="432.86005"
       id="ellipse4247"
       style="fill:#ffe755;fill-opacity:1;stroke:#000000;stroke-width:4.13098001;stroke-linecap:round;stroke-linejoin:miter;stroke-miterlimit:4;stroke-dasharray:none;stroke-opacity:1" />
    <path
       style="fill:#b6cefc;fill-opacity:1;fill-rule:evenodd;stroke:#000000;stroke-width:3.87320638;stroke-linecap:butt;stroke-linejoin:miter;stroke-miterlimit:4;stroke-dasharray:none;stroke-opacity:1"
       d="m 586.0953,445.99334 c 0,0 18.38722,9.29664 76.58429,13.1931 0,0 3.62156,3.02187 -0.32123,7.48014 0,0 -72.67572,-7.23337 -77.86365,1.53741"
       id="path3399"
       inkscape:connector-curvature="0"
       sodipodi:nodetypes="cccc" />
    <ellipse
       transform="matrix(0.97595444,-0.2179746,0.3040729,0.95264877,0,0)"
       ry="30.120411"
       rx="10.466721"
       cy="513.42938"
       cx="422.57294"
       id="ellipse3387"
       style="fill:#000000;fill-opacity:1;stroke:#000000;stroke-width:2.5776403;stroke-linecap:round;stroke-linejoin:miter;stroke-miterlimit:4;stroke-dasharray:none;stroke-opacity:1" />
    <path
       sodipodi:nodetypes="asssssssssssa"
       inkscape:connector-curvature="0"
       id="path4308"
       d="m 308.70046,355.64341 c -6.04977,1.16719 -14.28033,1.98398 -18.33193,2.36606 -23.17042,2.18506 -38.85491,4.53709 -58.37947,11.66733 -12.53414,4.57739 -32.16377,8.00766 -37.98472,12.52062 -8.67822,6.72818 -20.78705,19.51095 -31.11182,38.35819 -0.73092,1.33426 -3.29458,5.00654 -3.29458,5.00654 -1.14421,-1.38606 0.8539,-5.447 1.80677,-7.90507 0.94181,-2.42952 3.55976,-7.77187 5.10563,-10.41884 5.49567,-9.41013 13.46091,-18.4589 22.6153,-25.69165 6.91925,-5.4668 15.93612,-10.82026 24.52071,-14.55831 22.47049,-9.78449 49.69615,-14.14818 81.85741,-13.11997 4.54775,0.14539 16.43158,0.79168 16.50578,0.9202 0.0963,0.16673 -2.19046,0.63908 -3.30908,0.8549 z"
       style="fill:#9aaab0;fill-opacity:1;stroke:#4d88e5;stroke-width:0;stroke-miterlimit:4;stroke-dasharray:none;stroke-opacity:1" />
    <path
       style="fill:#d8e6fe;fill-opacity:1;stroke:#4d88e5;stroke-width:0;stroke-miterlimit:4;stroke-dasharray:none;stroke-opacity:1"
       d="m 176.99912,426.43606 c 6.61004,-4.69785 25.01554,-15.3932 25.01554,-15.3932 14.80224,-8.20269 50.08811,-22.07742 50.08811,-22.07742 -3.63841,4.30434 -30.28534,13.59914 -50.60329,27.56207 -12.31879,8.46573 -32.69462,18.11029 -39.60522,30.66265 -2.97781,5.40888 -2.66432,5.77689 -2.66432,5.77689 -6.01801,-12.04785 11.30971,-21.74098 17.76918,-26.53099 z"
       id="path4286"
       inkscape:connector-curvature="0"
       sodipodi:nodetypes="cccsscc" />
    <path
       style="fill:#85979f;fill-opacity:1;stroke:#000000;stroke-width:4.79282;stroke-linecap:round;stroke-linejoin:miter;stroke-miterlimit:4;stroke-dasharray:none;stroke-opacity:1"
       d="m 326.73251,350.3118 c 0,0 158.33743,28.185 158.66789,44.18479 0.31675,15.33614 -152.48407,43.59057 -152.48407,43.59057 -93.97741,13.00536 -165.37115,12.90079 -167.72448,-16.57715 0,0 17.6835,-85.94368 161.54066,-71.19821 z"
       id="path3380"
       inkscape:connector-curvature="0"
       sodipodi:nodetypes="ssccs" />
    <path
       style="fill:none;fill-rule:evenodd;stroke:#000000;stroke-width:3.86899996;stroke-linecap:butt;stroke-linejoin:miter;stroke-miterlimit:4;stroke-dasharray:none;stroke-opacity:1"
       d="m 547.04505,470.23793 c 0,0 21.33203,14.59889 38.66924,7.83856"
       id="path4219"
       inkscape:connector-curvature="0"
       sodipodi:nodetypes="cc" />
    <path
       style="fill:none;fill-rule:evenodd;stroke:#000000;stroke-width:3.86899996;stroke-linecap:butt;stroke-linejoin:miter;stroke-miterlimit:4;stroke-dasharray:none;stroke-opacity:1"
       d="m 548.32343,461.23356 c 0,0 5.17225,8.14197 -7.38675,14.14213"
       id="path4221"
       inkscape:connector-curvature="0"
       sodipodi:nodetypes="cc" />
    <path
       style="fill:none;fill-rule:evenodd;stroke:#000000;stroke-width:5;stroke-linecap:butt;stroke-linejoin:miter;stroke-miterlimit:4;stroke-dasharray:none;stroke-opacity:1"
       d="m 193.44421,465.7161 -21.46574,23.23351 18.43528,44.44672"
       id="path4231"
       inkscape:connector-curvature="0"
       sodipodi:nodetypes="ccc" />
    <path
       style="fill:none;fill-rule:evenodd;stroke:#000000;stroke-width:5;stroke-linecap:butt;stroke-linejoin:miter;stroke-miterlimit:4;stroke-dasharray:none;stroke-opacity:1"
       d="m 361.82596,508.98512 -28.21428,32.14286 25.71428,22.5"
       id="path4235"
       inkscape:connector-curvature="0" />
    <path
       style="fill:none;fill-rule:evenodd;stroke:#000000;stroke-width:5;stroke-linecap:butt;stroke-linejoin:miter;stroke-miterlimit:4;stroke-dasharray:none;stroke-opacity:1"
       d="m 484.10714,500.93363 23.92858,28.57143 -5.71429,14.28572"
       id="path4239"
       inkscape:connector-curvature="0" />
    <path
       style="fill:none;fill-rule:evenodd;stroke:#0f191e;stroke-width:5;stroke-linecap:butt;stroke-linejoin:miter;stroke-miterlimit:4;stroke-dasharray:none;stroke-opacity:1"
       d="m 424.73751,394.31363 c 0,0 -146.157,-35.00583 -211.53691,19.48561"
       id="path4251"
       inkscape:connector-curvature="0"
       sodipodi:nodetypes="cc" />
    <path
       style="fill:#5b0000;fill-opacity:1;stroke:none;stroke-width:6.25;stroke-miterlimit:4;stroke-dasharray:none;stroke-opacity:1"
       d=""
       id="path4155"
       inkscape:connector-curvature="0"
       transform="translate(134.43421,248.74297)" />
    <path
       style="fill:#5b0000;fill-opacity:1;stroke:none;stroke-width:6.25;stroke-miterlimit:4;stroke-dasharray:none;stroke-opacity:1"
       d=""
       id="path4157"
       inkscape:connector-curvature="0"
       transform="translate(134.43421,248.74297)" />
    <path
       style="fill:#5b0000;fill-opacity:1;stroke:none;stroke-width:6.25;stroke-miterlimit:4;stroke-dasharray:none;stroke-opacity:1"
       d=""
       id="path4159"
       inkscape:connector-curvature="0"
       transform="translate(134.43421,248.74297)" />
    <path
       style="fill:#5b0000;fill-opacity:1;stroke:none;stroke-width:6.25;stroke-miterlimit:4;stroke-dasharray:none;stroke-opacity:1"
       d=""
       id="path4161"
       inkscape:connector-curvature="0"
       transform="translate(134.43421,248.74297)" />
    <path
       style="fill:#5b0000;fill-opacity:1;stroke:none;stroke-width:6.25;stroke-miterlimit:4;stroke-dasharray:none;stroke-opacity:1"
       d=""
       id="path4163"
       inkscape:connector-curvature="0"
       transform="translate(134.43421,248.74297)" />
    <rect
       style="fill:#b6cffc;fill-opacity:1;stroke:none;stroke-width:0.1;stroke-miterlimit:4;stroke-dasharray:none;stroke-opacity:1"
       id="rect4201"
       width="2.2097087"
       height="4.5078058"
       x="584.50769"
       y="444.50656" />
    <path
       style="fill:#9aaab0;fill-opacity:1;stroke:#4d88e5;stroke-width:0;stroke-miterlimit:4;stroke-dasharray:none;stroke-opacity:1"
       d="m 317.22512,353.0551 c -6.04977,1.1672 -14.28033,1.98399 -18.33193,2.36607 -23.17043,2.18505 -38.85491,4.53708 -58.37948,11.66732 -12.53414,4.57739 -30.47804,12.34164 -36.299,16.85459 -8.67822,6.72819 -20.39246,19.48726 -32.17882,35.09588 -0.91678,1.21409 -3.91329,3.93488 -3.91329,3.93488 -1.14422,-1.38605 0.8539,-5.447 1.80677,-7.90507 0.9418,-2.42952 3.55975,-7.77187 5.10563,-10.41884 5.49566,-9.41013 13.46091,-18.45889 22.6153,-25.69165 6.91924,-5.4668 15.93611,-10.82025 24.5207,-14.55831 22.47049,-9.78449 49.69616,-14.14818 81.85741,-13.11997 4.54775,0.1454 16.43159,0.79168 16.50579,0.9202 0.0963,0.16674 -2.19047,0.63909 -3.30908,0.8549 z"
       id="path4214"
       inkscape:connector-curvature="0"
       sodipodi:nodetypes="asssssssssssa" />
    <path
       style="fill:#d8e6fe;fill-opacity:1;stroke:#4d88e5;stroke-width:0;stroke-miterlimit:4;stroke-dasharray:none;stroke-opacity:1"
       d="m 525.78319,213.20239 c -0.30938,-0.0237 -2.95313,-0.21113 -5.875,-0.41655 -31.15207,-2.19011 -53.39702,-5.11401 -62.42162,-8.20477 -1.71527,-0.58745 -4.40238,-2.76527 -4.76602,-3.1671 -0.18326,-0.20249 -0.37956,-1.72004 -0.37956,-1.72004 0,0 1.25133,0.52318 2.28765,0.89704 13.98728,5.04591 39.37476,9.31531 68.02955,11.44048 4.58925,0.34036 4.50284,0.33068 4.68696,0.52502 0.0887,0.0936 0.19916,0.29672 0.24554,0.45141 0.0806,0.26866 0.0546,0.28027 -0.58033,0.25941 -0.36557,-0.012 -0.9178,-0.0412 -1.22717,-0.0649 z"
       id="path4260"
       inkscape:connector-curvature="0"
       transform="translate(134.43421,248.74297)"
       sodipodi:nodetypes="sssccsscccs" />
    <path
       style="fill:#85adf7;fill-opacity:1;stroke:#4d88e5;stroke-width:0;stroke-miterlimit:4;stroke-dasharray:none;stroke-opacity:1"
       d="m 489.34112,503.18802 c -0.71537,-0.84869 -1.48896,-1.72048 -1.70624,-1.97729 l -1.57163,-1.85753 2.29769,-0.46664 c 2.59406,-0.52683 9.96683,-2.28091 11.29375,-2.82978 1.05221,-0.43523 1.55881,-0.54019 2.60745,-0.54019 l 1.30152,0 0,-0.53588 c 0,-0.35013 0.10723,-0.57443 0.30936,-0.64711 2.52797,-0.90901 11.78321,-5.12588 17.24594,-7.85759 3.88338,-1.94193 4.54178,-2.19295 4.54178,-1.73158 0,0.26503 -4.73134,3.73658 -8.3085,6.09624 -6.94306,4.57997 -13.4525,8.24288 -23.02202,12.46419 -1.83286,0.8085 -3.51853,1.5588 -3.59842,1.5588 -0.0799,0 -0.67531,-0.82696 -1.39068,-1.67564 z"
       id="path4268"
       inkscape:connector-curvature="0"
       sodipodi:nodetypes="sscssscssssssss" />
    <path
       style="fill:#85adf7;fill-opacity:1;stroke:#4d88e5;stroke-width:0;stroke-miterlimit:4;stroke-dasharray:none;stroke-opacity:1"
       d="m 347.20477,529.61545 c 3.23074,-3.70525 4.94023,-5.71287 5.15813,-5.71287 0.72991,0 11.53985,-0.5082 15.43625,-0.81345 41.92791,-3.2847 78.06655,-10.56584 111.23674,-21.26659 1.33687,-0.43127 3.83601,-1.31143 3.83601,-1.31143 l 2.9802,-1.0998 c 0.21768,-0.0803 -3.80556,3.08192 -3.61761,3.2696 0.71984,0.71887 1.17024,1.48836 1.61856,2.02807 0.92365,1.11196 1.67938,2.06805 1.67938,2.12467 0,0.0566 -0.45741,0.27108 -1.01646,0.4766 -0.55906,0.20551 -2.52791,0.92708 -4.37523,1.60348 -34.85532,12.76228 -80.02876,20.29205 -127.11906,21.18893 l -6.34714,0.12089 z"
       id="path4270"
       inkscape:connector-curvature="0"
       sodipodi:nodetypes="sssscsssscsscs" />
    <path
       style="fill:#85adf7;fill-opacity:1;stroke:#4d88e5;stroke-width:0;stroke-miterlimit:4;stroke-dasharray:none;stroke-opacity:1"
       d="m 333.15092,530.04809 c -12.99327,-0.54969 -23.42264,-1.54318 -35.00178,-3.33424 -5.97082,-0.92356 -8.73582,-0.99614 -5.65685,-1.35131 7.17782,-0.82799 40.49802,-0.76604 46.11771,-1.0023 2.85665,-0.1201 6.27429,-0.37243 6.29838,-0.34468 0.0241,0.0278 -2.07893,2.65459 -3.16098,3.89285 l -1.96735,2.2514 -2.74004,-0.0316 c -1.50702,-0.0174 -3.25711,-0.0534 -3.88909,-0.0802 z"
       id="path4272"
       inkscape:connector-curvature="0"
       sodipodi:nodetypes="cssscscccc" />
    <path
       style="fill:#85adf7;fill-opacity:1;stroke:#4d88e5;stroke-width:0;stroke-miterlimit:4;stroke-dasharray:none;stroke-opacity:1"
       d="m 420.41868,270.58484 c -2.74081,-0.18616 -5.59358,-1.37835 -8.26354,-3.4534 -1.61176,-1.25263 -3.37661,-3.03621 -4.8889,-4.94078 -2.5064,-3.15652 -4.92712,-7.3068 -7.01109,-12.02036 -0.49411,-1.11759 -1.15047,-2.6974 -1.12943,-2.71844 0.008,-0.008 0.14375,0.1478 0.30145,0.34644 3.44648,4.34142 7.49628,8.27523 11.13698,10.81797 3.78779,2.64548 7.2547,4.0995 11.00435,4.6152 0.79065,0.10875 2.72855,0.13464 3.62634,0.0485 3.03,-0.29087 5.91081,-1.40565 8.70793,-3.36966 2.27645,-1.59842 4.7201,-4.06309 6.81615,-6.87479 0.32016,-0.42946 0.5907,-0.77226 0.6012,-0.76176 0.027,0.027 -0.92314,1.90957 -1.48125,2.93473 -2.27054,4.17061 -4.62123,7.40661 -7.27247,10.01142 -3.41506,3.35526 -6.85729,5.11273 -10.51177,5.3669 -0.70624,0.0491 -0.88764,0.0489 -1.63595,-0.002 l 0,0 z"
       id="path4306"
       inkscape:connector-curvature="0"
       transform="translate(134.43421,248.74297)" />
  </g>
</svg>
